PathFileType	4	(X/Y/Z)	C:\Users\WrightLab\Desktop\Jo\P5V212.trc
DataRate	CameraRate	NumFrames	NumMarkers	Units	OrigDataRate	OrigDataStartFrame	OrigNumFrames
100.00	100.00	       8	19	mm	100.00	1	       469
Frame#	Time	Headset_Front			Headset_Back			Headset_Left			Headset_Right			Left_Shoulder			Right_Shoulder			Sternum			C7			Left Elbow			Right Elbow			Left Wrist			Right Wrist			Left ASIS			Right ASIS			S2			Left Knee			Right Knee			Left Ankle			Right Ankle			
		X1	Y1	Z1	X2	Y2	Z2	X3	Y3	Z3	X4	Y4	Z4	X5	Y5	Z5	X6	Y6	Z6	X7	Y7	Z7	X8	Y8	Z8	X9	Y9	Z9	X10	Y10	Z10	X11	Y11	Z11	X12	Y12	Z12	X13	Y13	Z13	X14	Y14	Z14	X15	Y15	Z15	X16	Y16	Z16	X17	Y17	Z17	X18	Y18	Z18	X19	Y19	Z19	

1	0.000	-471.91043	1615.54260	-954.33972	-333.05161	950.17059	-1290.71875							-361.67285	1314.18433	-1023.50018	-384.80609	1505.63696	-1238.11914							-76.94401	1194.33472	-1114.14832	-670.47687	1173.05457	-1096.56079	-119.66640	963.03583	-1011.87030	-605.30151	1053.09094	-900.85461	-227.53996	920.53320	-1008.76215	-495.17181	939.41290	-1000.23248				-176.01939	483.77829	-1045.65222	-547.14722	473.28250	-1059.41614	-225.99156	67.46972	-1143.63757				
2	0.010	-471.81360	1615.59644	-954.30725	-333.16019	950.18738	-1290.73389							-361.56430	1314.31946	-1023.19653	-384.95840	1505.68579	-1238.12634							-76.99852	1194.34363	-1114.10669	-670.44495	1173.04211	-1096.53723	-119.58501	963.32043	-1012.75000	-604.75470	1052.17139	-900.59430	-227.66072	920.39221	-1009.53699	-494.73901	939.55328	-1000.62903				-176.09709	483.43048	-1046.73730	-547.26569	473.15778	-1060.04626	-225.99156	67.46972	-1143.63757				
3	0.020	-471.71552	1615.71448	-954.26129	-333.25674	950.20288	-1290.74719							-361.56430	1314.31946	-1023.19653	-385.11890	1505.73987	-1238.13318							-76.94492	1194.29968	-1114.29492	-670.78052	1173.46692	-1096.34534	-119.26314	963.38092	-1012.81683	-604.66119	1052.21790	-900.30969	-227.59747	920.69788	-1009.88104	-494.82843	939.19531	-999.94922				-176.36633	483.03717	-1047.43958	-547.05841	473.27097	-1060.08447	-225.99156	67.46972	-1143.63757				
4	0.030	-471.55063	1616.06323	-954.23474	-333.35886	950.22485	-1290.75964							-361.06268	1314.42627	-1023.24011	-385.28583	1505.62744	-1237.97058							-77.00145	1194.27783	-1114.38220	-670.12079	1172.86060	-1096.76892	-119.10219	963.10547	-1013.94562	-604.70099	1052.02234	-900.21490	-226.67477	921.25635	-1009.76563	-494.61337	939.28339	-1000.08710				-176.60481	483.57483	-1048.22131	-547.05389	473.26495	-1060.08167	-225.99156	67.46972	-1143.63757				
5	0.040	-471.43103	1616.52771	-954.37714	-333.40372	950.23792	-1290.76404							-361.06268	1314.42627	-1023.24011	-385.39249	1505.65662	-1237.66370							-76.94868	1194.18066	-1114.79382	-670.02344	1172.92725	-1096.47046	-118.98360	963.14716	-1015.96436	-604.61432	1051.95996	-900.17896	-226.83588	921.01624	-1010.61859	-494.44269	938.89270	-1000.14484				-176.55574	483.02209	-1048.64771	-547.17053	473.09033	-1061.00940	-225.99156	67.46972	-1143.63757				
6	0.050	-471.13019	1617.40271	-954.19263	-333.47180	950.27679	-1290.76514							-361.08914	1314.29346	-1022.70166	-385.48428	1505.72351	-1237.20471							-76.91918	1194.13147	-1115.00220	-670.16760	1173.27893	-1096.14160	-118.84814	963.08148	-1015.99377	-604.56927	1051.89648	-900.15485	-226.33409	920.90021	-1010.93927	-494.10297	938.08319	-999.89545				-177.86559	482.96161	-1049.85046	-547.07410	473.16785	-1061.09436	-225.99156	67.46972	-1143.63757				
7	0.060	-471.06009	1617.82324	-953.99945	-333.55002	950.33472	-1290.76233							-361.08914	1314.29346	-1022.70166	-385.56839	1505.77490	-1236.54102							-76.91280	1194.03235	-1115.41870	-669.70996	1172.92261	-1096.10388	-118.70755	963.02429	-1016.02771	-603.95813	1051.18347	-899.67188	-226.26155	920.93268	-1010.88770	-494.39142	938.35895	-999.80994				-177.79916	482.94214	-1050.10559	-546.89795	473.31567	-1061.05005	-225.99156	67.46972	-1143.63757				
8	0.070	-470.99924	1618.36816	-954.04553	-333.72754	950.07758	-1290.61902							-361.10452	1314.21655	-1022.38995	-385.73337	1505.86963	-1236.53772							-76.91660	1193.96509	-1115.70044	-669.36206	1172.53687	-1095.82971	-118.56135	962.97845	-1016.02765	-603.86969	1051.10144	-899.63196	-226.25919	920.92120	-1010.88531	-493.93857	938.11615	-999.62714				-177.84476	482.73865	-1051.00891	-546.53967	473.18430	-1060.98767	-225.99156	67.46972	-1143.63757				
